<svg width="360" height="189" viewBox="0 0 360 189" fill="none" xmlns="http://www.w3.org/2000/svg">
<g filter="url(#filter0_d_6_39)">
<rect x="20" y="33" width="269" height="30" rx="15" fill="url(#paint0_linear_6_39)" fill-opacity="0.89"/>
<path d="M53 88C53 79.7157 59.7157 73 68 73V73C76.2843 73 83 79.7157 83 88V158C83 166.284 76.2843 173 68 173V173C59.7157 173 53 166.284 53 158V88Z" fill="url(#paint1_linear_6_39)"/>
<g filter="url(#filter1_i_6_39)">
<path d="M121.448 127C120.509 127 119.784 126.765 119.272 126.296C118.803 125.784 118.568 125.059 118.568 124.12V84.76C118.568 83.8213 118.803 83.1173 119.272 82.648C119.784 82.136 120.509 81.88 121.448 81.88H145.256C145.981 81.88 146.536 82.072 146.92 82.456C147.304 82.84 147.496 83.3733 147.496 84.056C147.496 84.7813 147.304 85.336 146.92 85.72C146.536 86.104 145.981 86.296 145.256 86.296H123.688V101.912H143.912C144.637 101.912 145.192 102.104 145.576 102.488C145.96 102.829 146.152 103.363 146.152 104.088C146.152 104.813 145.96 105.368 145.576 105.752C145.192 106.136 144.637 106.328 143.912 106.328H123.688V122.584H145.256C145.981 122.584 146.536 122.776 146.92 123.16C147.304 123.544 147.496 124.077 147.496 124.76C147.496 125.485 147.304 126.04 146.92 126.424C146.536 126.808 145.981 127 145.256 127H121.448ZM188.653 127.576C184.216 127.576 180.418 126.637 177.261 124.76C174.104 122.883 171.672 120.216 169.965 116.76C168.301 113.304 167.469 109.187 167.469 104.408C167.469 100.824 167.938 97.624 168.877 94.808C169.858 91.9493 171.245 89.5387 173.037 87.576C174.872 85.5707 177.112 84.0347 179.757 82.968C182.402 81.8587 185.368 81.304 188.653 81.304C191.298 81.304 193.816 81.688 196.205 82.456C198.594 83.1813 200.664 84.2693 202.413 85.72C202.968 86.1467 203.33 86.6373 203.501 87.192C203.714 87.704 203.736 88.216 203.565 88.728C203.437 89.1973 203.181 89.6027 202.797 89.944C202.456 90.2427 202.029 90.392 201.517 90.392C201.005 90.392 200.429 90.1787 199.789 89.752C198.253 88.5147 196.568 87.5973 194.733 87C192.898 86.4027 190.914 86.104 188.781 86.104C185.41 86.104 182.552 86.8293 180.205 88.28C177.858 89.688 176.088 91.7573 174.893 94.488C173.698 97.2187 173.101 100.525 173.101 104.408C173.101 108.291 173.698 111.619 174.893 114.392C176.088 117.123 177.858 119.213 180.205 120.664C182.552 122.072 185.41 122.776 188.781 122.776C190.872 122.776 192.856 122.477 194.733 121.88C196.61 121.24 198.338 120.301 199.917 119.064C200.557 118.637 201.133 118.445 201.645 118.488C202.157 118.488 202.584 118.637 202.925 118.936C203.266 119.235 203.501 119.619 203.629 120.088C203.8 120.557 203.8 121.048 203.629 121.56C203.501 122.072 203.181 122.52 202.669 122.904C200.877 124.44 198.765 125.613 196.333 126.424C193.944 127.192 191.384 127.576 188.653 127.576ZM228.259 127.448C227.406 127.448 226.745 127.213 226.275 126.744C225.849 126.232 225.635 125.549 225.635 124.696V84.184C225.635 83.288 225.849 82.6053 226.275 82.136C226.745 81.6667 227.406 81.432 228.259 81.432C229.113 81.432 229.753 81.6667 230.179 82.136C230.649 82.6053 230.883 83.288 230.883 84.184V101.848H257.955V84.184C257.955 83.288 258.169 82.6053 258.596 82.136C259.065 81.6667 259.726 81.432 260.579 81.432C261.433 81.432 262.073 81.6667 262.5 82.136C262.969 82.6053 263.203 83.288 263.203 84.184V124.696C263.203 125.549 262.969 126.232 262.5 126.744C262.073 127.213 261.433 127.448 260.579 127.448C259.726 127.448 259.065 127.213 258.596 126.744C258.169 126.232 257.955 125.549 257.955 124.696V106.392H230.883V124.696C230.883 125.549 230.67 126.232 230.243 126.744C229.817 127.213 229.155 127.448 228.259 127.448Z" fill="black"/>
</g>
<path d="M161.864 159V157.152L168.536 144.096H161.864V142.2H170.648V144.024L163.976 157.08H170.672L170.648 159H161.864ZM183.667 159.12V157.2C183.955 157.2 184.267 157.136 184.603 157.008C184.939 156.864 185.251 156.664 185.539 156.408C185.843 156.152 186.091 155.84 186.283 155.472C186.475 155.088 186.571 154.656 186.571 154.176V147C186.571 146.664 186.499 146.328 186.355 145.992C186.227 145.64 186.035 145.312 185.779 145.008C185.539 144.704 185.243 144.464 184.891 144.288C184.539 144.096 184.131 144 183.667 144V142.08C184.419 142.08 185.091 142.224 185.683 142.512C186.275 142.8 186.779 143.176 187.195 143.64C187.611 144.104 187.931 144.6 188.155 145.128C188.379 145.64 188.491 146.136 188.491 146.616V154.224C188.491 155.024 188.339 155.728 188.035 156.336C187.731 156.944 187.339 157.456 186.859 157.872C186.379 158.288 185.859 158.6 185.299 158.808C184.739 159.016 184.195 159.12 183.667 159.12ZM182.347 159.12C181.867 159.12 181.347 159.016 180.787 158.808C180.243 158.6 179.723 158.288 179.227 157.872C178.731 157.456 178.323 156.944 178.003 156.336C177.699 155.728 177.547 155.024 177.547 154.224V146.616C177.547 146.136 177.659 145.632 177.883 145.104C178.107 144.576 178.427 144.088 178.843 143.64C179.259 143.176 179.763 142.8 180.355 142.512C180.963 142.224 181.635 142.08 182.371 142.08V144C181.923 144 181.515 144.096 181.147 144.288C180.795 144.464 180.491 144.712 180.235 145.032C179.995 145.336 179.803 145.664 179.659 146.016C179.531 146.352 179.467 146.68 179.467 147V154.176C179.467 154.656 179.563 155.08 179.755 155.448C179.963 155.816 180.211 156.136 180.499 156.408C180.803 156.664 181.115 156.864 181.435 157.008C181.771 157.136 182.075 157.2 182.347 157.2V159.12ZM205.246 159L195.502 143.424V142.2H197.158L206.182 156.624V159H205.246ZM195.502 159V145.704H195.694L197.422 148.488V159H195.502ZM205.99 154.32L204.262 151.488V142.2H206.182V154.32H205.99ZM213.221 159V142.2H221.957V144.096H215.141V149.688H219.701V151.584H215.141V157.104H221.957V159H213.221Z" fill="black"/>
<line x1="264" y1="151.5" x2="228" y2="151.5" stroke="black"/>
<line x1="155" y1="151.5" x2="119" y2="151.5" stroke="black"/>
</g>
<defs>
<filter id="filter0_d_6_39" x="-4" y="0" width="368" height="197" filterUnits="userSpaceOnUse" color-interpolation-filters="sRGB">
<feFlood flood-opacity="0" result="BackgroundImageFix"/>
<feColorMatrix in="SourceAlpha" type="matrix" values="0 0 0 0 0 0 0 0 0 0 0 0 0 0 0 0 0 0 127 0" result="hardAlpha"/>
<feOffset dy="4"/>
<feGaussianBlur stdDeviation="2"/>
<feComposite in2="hardAlpha" operator="out"/>
<feColorMatrix type="matrix" values="0 0 0 0 0 0 0 0 0 0 0 0 0 0 0 0 0 0 0.25 0"/>
<feBlend mode="normal" in2="BackgroundImageFix" result="effect1_dropShadow_6_39"/>
<feBlend mode="normal" in="SourceGraphic" in2="effect1_dropShadow_6_39" result="shape"/>
</filter>
<filter id="filter1_i_6_39" x="118.568" y="81.304" width="144.636" height="50.2721" filterUnits="userSpaceOnUse" color-interpolation-filters="sRGB">
<feFlood flood-opacity="0" result="BackgroundImageFix"/>
<feBlend mode="normal" in="SourceGraphic" in2="BackgroundImageFix" result="shape"/>
<feColorMatrix in="SourceAlpha" type="matrix" values="0 0 0 0 0 0 0 0 0 0 0 0 0 0 0 0 0 0 127 0" result="hardAlpha"/>
<feOffset dy="4"/>
<feGaussianBlur stdDeviation="2"/>
<feComposite in2="hardAlpha" operator="arithmetic" k2="-1" k3="1"/>
<feColorMatrix type="matrix" values="0 0 0 0 0 0 0 0 0 0 0 0 0 0 0 0 0 0 0.25 0"/>
<feBlend mode="normal" in2="shape" result="effect1_innerShadow_6_39"/>
</filter>
<linearGradient id="paint0_linear_6_39" x1="134" y1="63" x2="140" y2="33" gradientUnits="userSpaceOnUse">
<stop stop-color="#71B1EC"/>
<stop offset="1" stop-color="#9108FC"/>
</linearGradient>
<linearGradient id="paint1_linear_6_39" x1="76" y1="81" x2="53" y2="173" gradientUnits="userSpaceOnUse">
<stop offset="0.0366748" stop-color="#8EB8F8"/>
<stop offset="1" stop-color="#FA3F3F"/>
</linearGradient>
</defs>
</svg>
